<?xml version="1.0" encoding="UTF-8" standalone="no"?>
<svg
   width="800px"
   height="800px"
   viewBox="-4 0 36 36"
   version="1.1"
   id="svg37"
   sodipodi:docname="marker-repeater-gateway-green.svg"
   inkscape:version="1.2 (dc2aedaf03, 2022-05-15)"
   xml:space="preserve"
   xmlns:inkscape="http://www.inkscape.org/namespaces/inkscape"
   xmlns:sodipodi="http://sodipodi.sourceforge.net/DTD/sodipodi-0.dtd"
   xmlns="http://www.w3.org/2000/svg"
   xmlns:svg="http://www.w3.org/2000/svg"
   xmlns:rdf="http://www.w3.org/1999/02/22-rdf-syntax-ns#"
   xmlns:cc="http://creativecommons.org/ns#"
   xmlns:dc="http://purl.org/dc/elements/1.1/"><sodipodi:namedview
     id="namedview39"
     pagecolor="#ffffff"
     bordercolor="#000000"
     borderopacity="0.25"
     inkscape:showpageshadow="2"
     inkscape:pageopacity="0.0"
     inkscape:pagecheckerboard="0"
     inkscape:deskcolor="#d1d1d1"
     showgrid="false"
     inkscape:zoom="0.76279144"
     inkscape:cx="103.56697"
     inkscape:cy="427.37763"
     inkscape:window-width="1920"
     inkscape:window-height="1017"
     inkscape:window-x="1912"
     inkscape:window-y="122"
     inkscape:window-maximized="1"
     inkscape:current-layer="map-marker" /><!-- Uploaded to: SVG Repo, www.svgrepo.com, Generator: SVG Repo Mixer Tools --><title
     id="title23">map-marker</title><desc
     id="desc25">Created with Sketch.</desc><defs
     id="defs27"><clipPath
       clipPathUnits="userSpaceOnUse"
       id="clipPath461"><circle
         id="circle463"
         fill="#0c0058"
         fill-rule="nonzero"
         cx="48.617481"
         cy="44.046349"
         style="fill:#ffffff;stroke-width:7.93653"
         r="55.555557" /></clipPath></defs><g
     id="Vivid.JS"
     stroke="none"
     stroke-width="1"
     fill="none"
     fill-rule="evenodd"><g
       id="Vivid-Icons"
       transform="translate(-125.000000, -643.000000)"><g
         id="Icons"
         transform="translate(37.000000, 169.000000)"><g
           id="map-marker"
           transform="translate(78.000000, 468.000000)"><g
             transform="translate(10.000000, 6.000000)"
             id="g31"><path
               d="M 14,0 C 21.455858,0 27.5,5.641 27.5,12.6 27.5,23.963 14,36 14,36 14,36 0.5,24.064 0.5,12.6 0.5,5.641 6.5441429,0 14,0 Z"
               id="Shape"
               fill="#ff6e6e"
               style="stroke-width:0.981981;fill:#808000" /><circle
               id="circle458"
               fill="#0c0058"
               fill-rule="nonzero"
               cx="14"
               cy="13.5"
               style="fill:#ffffff;stroke-width:1.60715"
               r="11.25" /></g><path
             d="m 24.01337,11.765841 2.435198,2.430066 -0.63394,0.635269 -1.344649,-1.341817 0.0033,3.130697 -0.909594,9.57e-4 -0.0033,-3.130697 -1.341817,1.344656 -0.63527,-0.63394 z"
             style="fill:#000000;fill-opacity:1;stroke-width:0.0149577"
             id="path994" /><path
             d="m 24.067511,27.111902 -2.435198,-2.430066 0.63394,-0.635269 1.344649,1.341817 -0.0033,-3.130697 0.909593,-9.57e-4 0.0033,3.130697 1.341818,-1.344656 0.635269,0.63394 z"
             style="fill:#000000;fill-opacity:1;stroke-width:0.0149577"
             id="path994-2" /><path
             d="m 20.903927,19.436315 -2.430066,2.435198 -0.635269,-0.63394 1.341817,-1.344649 -3.130697,0.0033 -9.57e-4,-0.909593 3.130697,-0.0033 -1.344656,-1.341818 0.63394,-0.635269 z"
             style="fill:#000000;fill-opacity:1;stroke-width:0.0149577"
             id="path994-4" /><path
             d="m 27.111828,19.490456 2.430065,-2.435198 0.63527,0.63394 -1.341818,1.344649 3.130697,-0.0033 9.57e-4,0.909593 -2.012333,0.0021 -1.118363,0.0012 1.344656,1.341818 -0.63394,0.635269 z"
             style="fill:#000000;fill-opacity:1;stroke-width:0.0149577"
             id="path994-5"
             sodipodi:nodetypes="ccccccccccc" /><path
             d="m 22.893611,21.56377 q -0.224498,0 -0.38152,-0.157355 -0.157355,-0.157354 -0.157355,-0.38152 0,-0.224498 0.157355,-0.381521 0.157355,-0.157355 0.38152,-0.157355 0.06581,0 0.115607,0.01197 0.04986,0.01197 0.10118,0.03523 l 0.401664,-0.50085 q -0.08988,-0.109158 -0.136547,-0.248098 -0.04653,-0.139672 -0.02393,-0.290644 l -0.571649,-0.193653 q -0.07087,0.118864 -0.186605,0.184213 -0.115607,0.06581 -0.266846,0.06581 -0.224498,0 -0.38152,-0.157354 -0.157355,-0.157355 -0.157355,-0.381521 0,-0.224498 0.157355,-0.381521 0.157355,-0.157355 0.38152,-0.157355 0.224499,0 0.381521,0.157355 0.157355,0.157355 0.157355,0.381521 v 0.01928 l 0.576502,0.198505 q 0.08509,-0.150973 0.205552,-0.231612 0.120393,-0.08004 0.266845,-0.11401 v -0.609609 q -0.184212,-0.05185 -0.290644,-0.203159 -0.105967,-0.150973 -0.105967,-0.316505 0,-0.224498 0.157355,-0.38152 0.157355,-0.157355 0.381521,-0.157355 0.224498,0 0.38152,0.157355 0.157355,0.157355 0.157355,0.38152 0,0.165399 -0.109158,0.316505 -0.109158,0.150973 -0.288317,0.203159 v 0.609609 q 0.14612,0.03324 0.269304,0.11401 0.123651,0.08004 0.208012,0.231612 l 0.57165,-0.198505 v -0.01928 q 0,-0.224498 0.157354,-0.381521 0.157355,-0.157355 0.381521,-0.157355 0.224498,0 0.381521,0.157355 0.157355,0.157355 0.157355,0.381521 0,0.224498 -0.157355,0.381521 Q 26.009929,19.55 25.785763,19.55 q -0.150973,0 -0.269305,-0.06581 -0.118863,-0.06581 -0.184411,-0.184213 l -0.57165,0.193653 q 0.02393,0.150972 -0.02061,0.290644 -0.04521,0.139672 -0.139672,0.248098 l 0.401597,0.50085 q 0.05185,-0.02393 0.101181,-0.03523 0.04986,-0.01197 0.114011,-0.01197 0.228819,0 0.384778,0.157355 0.155759,0.157355 0.155759,0.381521 0,0.224498 -0.157355,0.38152 -0.157355,0.157355 -0.38152,0.157355 -0.224499,0 -0.381521,-0.157355 -0.157355,-0.157354 -0.157355,-0.38152 0,-0.09473 0.02593,-0.170052 0.02593,-0.07585 0.07419,-0.14612 l -0.401597,-0.50085 q -0.150973,0.08004 -0.323884,0.08004 -0.172113,0 -0.323419,-0.08004 l -0.396943,0.50557 q 0.04653,0.07087 0.07419,0.144524 0.02593,0.07426 0.02593,0.167792 0,0.224498 -0.157354,0.381521 -0.157355,0.157355 -0.381521,0.157355 z M 22.326682,19.2673 q 0.109158,0 0.181819,-0.07419 0.07426,-0.07426 0.07426,-0.181952 0,-0.109158 -0.07426,-0.181819 -0.07426,-0.07419 -0.181952,-0.07419 -0.109158,0 -0.181819,0.07419 -0.07426,0.07419 -0.07426,0.181952 0,0.109158 0.07426,0.181819 0.07426,0.07419 0.181952,0.07419 z m 0.566996,2.012952 q 0.109158,0 0.181819,-0.07419 0.07426,-0.07426 0.07426,-0.181952 0,-0.109158 -0.07426,-0.181819 -0.07419,-0.07419 -0.181952,-0.07419 -0.109158,0 -0.181819,0.07419 -0.07419,0.07419 -0.07419,0.181952 0,0.109158 0.07419,0.181819 0.07426,0.07419 0.181952,0.07419 z m 1.162338,-3.269869 q 0.109158,0 0.181819,-0.07419 0.07419,-0.07419 0.07419,-0.181952 0,-0.109157 -0.07419,-0.181819 -0.07426,-0.07419 -0.181952,-0.07419 -0.109157,0 -0.181819,0.07419 -0.07426,0.07419 -0.07426,0.181952 0,0.109158 0.07426,0.181819 0.07419,0.07419 0.181952,0.07419 z m 0.0022,1.994052 q 0.177099,0 0.299951,-0.125246 0.121989,-0.125245 0.121989,-0.302411 0,-0.177165 -0.123651,-0.300151 -0.12365,-0.121988 -0.301879,-0.121988 -0.174905,0 -0.299951,0.12365 -0.125246,0.12365 -0.125246,0.301879 0,0.174906 0.125246,0.299952 0.125245,0.125246 0.302411,0.125246 z m 1.160258,1.275871 q 0.109157,0 0.181819,-0.07419 0.07426,-0.07419 0.07426,-0.181951 0,-0.109158 -0.07426,-0.181819 -0.07426,-0.07419 -0.181952,-0.07419 -0.109158,0 -0.181819,0.07419 -0.07426,0.07419 -0.07426,0.181951 0,0.109158 0.07426,0.181819 0.07426,0.07419 0.181952,0.07419 z M 25.78547,19.26736 q 0.109157,0 0.181819,-0.07419 0.07419,-0.07419 0.07419,-0.181952 0,-0.109158 -0.07419,-0.181819 -0.07426,-0.07419 -0.181952,-0.07419 -0.109158,0 -0.181819,0.07419 -0.07426,0.07419 -0.07426,0.181952 0,0.109158 0.07426,0.181819 0.07419,0.07419 0.181952,0.07419 z m -1.7296,-1.512096 z m -1.729427,1.256925 z m 1.729427,0.566996 z m 1.729428,-0.566996 z m -2.891833,2.012945 z m 2.32481,0 z"
             id="path2182"
             style="fill:#000000;fill-opacity:1;stroke-width:0.00472522" /><path
             d="m 24.052114,29.730618 q -2.121638,0 -3.965442,-0.79556 -1.843805,-0.795667 -3.207715,-2.159525 -1.36391,-1.36391 -2.146893,-3.220342 -0.782988,-1.856437 -0.782988,-3.978075 0,-2.121638 0.782988,-3.95281 0.782983,-1.831176 2.146893,-3.195091 1.36391,-1.36391 3.207715,-2.134266 1.843804,-0.7704101 3.965442,-0.7704101 2.121642,0 3.965447,0.7704101 1.843805,0.770417 3.207709,2.134266 1.363915,1.363915 2.146898,3.195091 0.782988,1.831172 0.782988,3.95281 0,2.121638 -0.782988,3.978075 -0.782983,1.856432 -2.146898,3.220342 -1.363904,1.363914 -3.207709,2.159525 -1.843805,0.79556 -3.965447,0.79556 z m 0,-1.46494 q 0.88402,-0.909275 1.477574,-2.083749 0.593609,-1.174481 0.972468,-2.790968 h -4.874712 q 0.353614,1.515456 0.947213,2.727824 0.593615,1.212357 1.477568,2.146893 z M 21.905221,27.962595 Q 21.273784,27.002804 20.819144,25.891472 20.36452,24.780136 20.061416,23.390971 h -3.78864 q 0.95979,1.793289 2.222669,2.816217 1.262878,1.022995 3.409776,1.755407 z m 4.31905,-0.02587 q 1.818545,-0.580921 3.270859,-1.742769 1.452308,-1.161852 2.336327,-2.803594 h -3.763381 q -0.328348,1.36391 -0.770416,2.475241 -0.441941,1.111338 -1.073389,2.071122 z m -10.456646,-6.06182 h 4.015953 q -0.0763,-0.681958 -0.08869,-1.224996 -0.01269,-0.543094 -0.01269,-1.073393 0,-0.631437 0.02587,-1.12396 0.02587,-0.492574 0.101064,-1.098764 h -4.041218 q -0.176807,0.606181 -0.23992,1.086076 -0.06287,0.47989 -0.06287,1.136592 0,0.656696 0.06287,1.174479 0.06285,0.517723 0.240021,1.123966 z m 5.58193,0 h 5.430378 q 0.101064,-0.782988 0.126276,-1.275512 0.02587,-0.492472 0.02587,-1.022877 0,-0.505156 -0.02587,-0.972474 -0.02486,-0.467207 -0.126276,-1.25025 h -5.430378 q -0.101064,0.782983 -0.126276,1.25025 -0.02587,0.467207 -0.02587,0.972474 0,0.53041 0.02587,1.022877 0.02587,0.492472 0.126276,1.275512 z m 6.945839,0 h 4.041213 q 0.176807,-0.606181 0.23992,-1.123966 0.06285,-0.517726 0.06285,-1.174479 0,-0.656697 -0.06285,-1.136592 -0.06285,-0.47989 -0.23992,-1.086076 h -4.015958 q 0.0763,0.884014 0.101064,1.351281 0.02587,0.467206 0.02587,0.871443 0,0.555666 -0.03805,1.048133 -0.03805,0.492472 -0.113596,1.250256 z m -0.252603,-6.03657 h 3.788646 q -0.8335,-1.74263 -2.285808,-2.904477 -1.452317,-1.161853 -3.346633,-1.641748 0.631437,0.934536 1.073505,2.020607 0.441941,1.086081 0.770294,2.525762 z m -6.415429,0 h 4.899978 q -0.277818,-1.338502 -0.934531,-2.588758 -0.656691,-1.250245 -1.54071,-2.210041 -0.808244,0.681957 -1.36391,1.793294 -0.555666,1.111332 -1.060822,3.005652 z m -5.354606,0 h 3.813895 q 0.277818,-1.363763 0.707218,-2.437212 0.429359,-1.073387 1.086076,-2.083749 -1.89432,0.47989 -3.308745,1.616488 -1.414425,1.136591 -2.29844,2.90462 z"
             id="path7396"
             style="fill:#000000;fill-opacity:0.263323;stroke-width:0.0252577" /></g></g></g></g><metadata
     id="metadata361"><rdf:RDF><cc:Work
         rdf:about=""><dc:title>map-marker</dc:title></cc:Work></rdf:RDF></metadata></svg>
