<?xml version="1.0" encoding="UTF-8" standalone="no"?>
<svg
   width="800px"
   height="800px"
   viewBox="-4 0 36 36"
   version="1.1"
   id="svg37"
   sodipodi:docname="marker-repeater-green.svg"
   inkscape:version="1.2 (dc2aedaf03, 2022-05-15)"
   xml:space="preserve"
   xmlns:inkscape="http://www.inkscape.org/namespaces/inkscape"
   xmlns:sodipodi="http://sodipodi.sourceforge.net/DTD/sodipodi-0.dtd"
   xmlns="http://www.w3.org/2000/svg"
   xmlns:svg="http://www.w3.org/2000/svg"
   xmlns:rdf="http://www.w3.org/1999/02/22-rdf-syntax-ns#"
   xmlns:cc="http://creativecommons.org/ns#"
   xmlns:dc="http://purl.org/dc/elements/1.1/"><sodipodi:namedview
     id="namedview39"
     pagecolor="#ffffff"
     bordercolor="#000000"
     borderopacity="0.25"
     inkscape:showpageshadow="2"
     inkscape:pageopacity="0.0"
     inkscape:pagecheckerboard="0"
     inkscape:deskcolor="#d1d1d1"
     showgrid="false"
     inkscape:zoom="0.76279144"
     inkscape:cx="104.87795"
     inkscape:cy="426.06666"
     inkscape:window-width="1920"
     inkscape:window-height="1017"
     inkscape:window-x="1912"
     inkscape:window-y="122"
     inkscape:window-maximized="1"
     inkscape:current-layer="map-marker" /><!-- Uploaded to: SVG Repo, www.svgrepo.com, Generator: SVG Repo Mixer Tools --><title
     id="title23">map-marker</title><desc
     id="desc25">Created with Sketch.</desc><defs
     id="defs27"><clipPath
       clipPathUnits="userSpaceOnUse"
       id="clipPath461"><circle
         id="circle463"
         fill="#0c0058"
         fill-rule="nonzero"
         cx="48.617481"
         cy="44.046349"
         style="fill:#ffffff;stroke-width:7.93653"
         r="55.555557" /></clipPath></defs><g
     id="Vivid.JS"
     stroke="none"
     stroke-width="1"
     fill="none"
     fill-rule="evenodd"><g
       id="Vivid-Icons"
       transform="translate(-125.000000, -643.000000)"><g
         id="Icons"
         transform="translate(37.000000, 169.000000)"><g
           id="map-marker"
           transform="translate(78.000000, 468.000000)"><g
             transform="translate(10.000000, 6.000000)"
             id="g31"><path
               d="M 14,0 C 21.455858,0 27.5,5.641 27.5,12.6 27.5,23.963 14,36 14,36 14,36 0.5,24.064 0.5,12.6 0.5,5.641 6.5441429,0 14,0 Z"
               id="Shape"
               fill="#ff6e6e"
               style="stroke-width:0.981981;fill:#808000" /><circle
               id="circle458"
               fill="#0c0058"
               fill-rule="nonzero"
               cx="14"
               cy="13.5"
               style="fill:#ffffff;stroke-width:1.60715"
               r="11.25" /></g><g
             id="g6275"
             transform="matrix(6.6478605,0,0,6.6478605,-61.021288,-228.40325)"><path
               d="m 12.791282,36.127276 0.366313,0.365541 -0.09536,0.09556 -0.202268,-0.201842 4.96e-4,0.470933 -0.136825,1.44e-4 -4.97e-4,-0.470933 -0.201842,0.202269 -0.09556,-0.09536 z"
               style="fill:#000000;fill-opacity:1;stroke-width:0.00225"
               id="path994" /><path
               d="m 12.799426,38.435697 -0.366313,-0.365541 0.09536,-0.09556 0.202268,0.201842 -4.96e-4,-0.470933 0.136825,-1.44e-4 4.97e-4,0.470933 0.201842,-0.202269 0.09556,0.09536 z"
               style="fill:#000000;fill-opacity:1;stroke-width:0.00225"
               id="path994-2" /><path
               d="m 12.323546,37.281102 -0.365541,0.366313 -0.09556,-0.09536 0.201842,-0.202268 -0.470933,4.96e-4 -1.44e-4,-0.136825 0.470933,-4.97e-4 -0.202269,-0.201842 0.09536,-0.09556 z"
               style="fill:#000000;fill-opacity:1;stroke-width:0.00225"
               id="path994-4" /><path
               d="m 13.230289,37.289246 0.365541,-0.366313 0.09556,0.09536 -0.201842,0.202268 0.470933,-4.96e-4 1.44e-4,0.136825 -0.470933,4.97e-4 0.202269,0.201842 -0.09536,0.09556 z"
               style="fill:#000000;fill-opacity:1;stroke-width:0.00225"
               id="path994-5" /><path
               d="m 12.622843,37.601123 q -0.03377,0 -0.05739,-0.02367 -0.02367,-0.02367 -0.02367,-0.05739 0,-0.03377 0.02367,-0.05739 0.02367,-0.02367 0.05739,-0.02367 0.0099,0 0.01739,0.0018 0.0075,0.0018 0.01522,0.0053 l 0.06042,-0.07534 q -0.01352,-0.01642 -0.02054,-0.03732 -0.007,-0.02101 -0.0036,-0.04372 l -0.08599,-0.02913 q -0.01066,0.01788 -0.02807,0.02771 -0.01739,0.0099 -0.04014,0.0099 -0.03377,0 -0.05739,-0.02367 -0.02367,-0.02367 -0.02367,-0.05739 0,-0.03377 0.02367,-0.05739 0.02367,-0.02367 0.05739,-0.02367 0.03377,0 0.05739,0.02367 0.02367,0.02367 0.02367,0.05739 v 0.0029 l 0.08672,0.02986 q 0.0128,-0.02271 0.03092,-0.03484 0.01811,-0.01204 0.04014,-0.01715 v -0.0917 q -0.02771,-0.0078 -0.04372,-0.03056 -0.01594,-0.02271 -0.01594,-0.04761 0,-0.03377 0.02367,-0.05739 0.02367,-0.02367 0.05739,-0.02367 0.03377,0 0.05739,0.02367 0.02367,0.02367 0.02367,0.05739 0,0.02488 -0.01642,0.04761 -0.01642,0.02271 -0.04337,0.03056 v 0.0917 q 0.02198,0.005 0.04051,0.01715 0.0186,0.01204 0.03129,0.03484 l 0.08599,-0.02986 v -0.0029 q 0,-0.03377 0.02367,-0.05739 0.02367,-0.02367 0.05739,-0.02367 0.03377,0 0.05739,0.02367 0.02367,0.02367 0.02367,0.05739 0,0.03377 -0.02367,0.05739 -0.02367,0.02367 -0.05739,0.02367 -0.02271,0 -0.04051,-0.0099 -0.01788,-0.0099 -0.02774,-0.02771 l -0.08599,0.02913 q 0.0036,0.02271 -0.0031,0.04372 -0.0068,0.02101 -0.02101,0.03732 l 0.06041,0.07534 q 0.0078,-0.0036 0.01522,-0.0053 0.0075,-0.0018 0.01715,-0.0018 0.03442,0 0.05788,0.02367 0.02343,0.02367 0.02343,0.05739 0,0.03377 -0.02367,0.05739 -0.02367,0.02367 -0.05739,0.02367 -0.03377,0 -0.05739,-0.02367 -0.02367,-0.02367 -0.02367,-0.05739 0,-0.01425 0.0039,-0.02558 0.0039,-0.01141 0.01116,-0.02198 l -0.06041,-0.07534 q -0.02271,0.01204 -0.04872,0.01204 -0.02589,0 -0.04865,-0.01204 l -0.05971,0.07605 q 0.007,0.01066 0.01116,0.02174 0.0039,0.01117 0.0039,0.02524 0,0.03377 -0.02367,0.05739 -0.02367,0.02367 -0.05739,0.02367 z m -0.08528,-0.345445 q 0.01642,0 0.02735,-0.01116 0.01117,-0.01117 0.01117,-0.02737 0,-0.01642 -0.01117,-0.02735 -0.01117,-0.01116 -0.02737,-0.01116 -0.01642,0 -0.02735,0.01116 -0.01117,0.01116 -0.01117,0.02737 0,0.01642 0.01117,0.02735 0.01117,0.01116 0.02737,0.01116 z m 0.08529,0.302797 q 0.01642,0 0.02735,-0.01116 0.01117,-0.01117 0.01117,-0.02737 0,-0.01642 -0.01117,-0.02735 -0.01116,-0.01116 -0.02737,-0.01116 -0.01642,0 -0.02735,0.01116 -0.01116,0.01116 -0.01116,0.02737 0,0.01642 0.01116,0.02735 0.01117,0.01116 0.02737,0.01116 z m 0.174844,-0.491868 q 0.01642,0 0.02735,-0.01116 0.01116,-0.01116 0.01116,-0.02737 0,-0.01642 -0.01116,-0.02735 -0.01117,-0.01116 -0.02737,-0.01116 -0.01642,0 -0.02735,0.01116 -0.01117,0.01116 -0.01117,0.02737 0,0.01642 0.01117,0.02735 0.01116,0.01116 0.02737,0.01116 z m 3.31e-4,0.299954 q 0.02664,0 0.04512,-0.01884 0.01835,-0.01884 0.01835,-0.04549 0,-0.02665 -0.0186,-0.04515 -0.0186,-0.01835 -0.04541,-0.01835 -0.02631,0 -0.04512,0.0186 -0.01884,0.0186 -0.01884,0.04541 0,0.02631 0.01884,0.04512 0.01884,0.01884 0.04549,0.01884 z m 0.174531,0.191922 q 0.01642,0 0.02735,-0.01116 0.01117,-0.01116 0.01117,-0.02737 0,-0.01642 -0.01117,-0.02735 -0.01117,-0.01116 -0.02737,-0.01116 -0.01642,0 -0.02735,0.01116 -0.01117,0.01116 -0.01117,0.02737 0,0.01642 0.01117,0.02735 0.01117,0.01116 0.02737,0.01116 z m 0.08529,-0.302796 q 0.01642,0 0.02735,-0.01116 0.01116,-0.01116 0.01116,-0.02737 0,-0.01642 -0.01116,-0.02735 -0.01117,-0.01116 -0.02737,-0.01116 -0.01642,0 -0.02735,0.01116 -0.01117,0.01116 -0.01117,0.02737 0,0.01642 0.01117,0.02735 0.01116,0.01116 0.02737,0.01116 z m -0.260174,-0.227456 z m -0.260148,0.189072 z m 0.260148,0.08529 z m 0.260148,-0.08529 z m -0.435002,0.302796 z m 0.349708,0 z"
               id="path2182"
               style="fill:#000000;fill-opacity:1;stroke-width:0.000710788" /></g></g></g></g></g><metadata
     id="metadata361"><rdf:RDF><cc:Work
         rdf:about=""><dc:title>map-marker</dc:title></cc:Work></rdf:RDF></metadata></svg>
