<?xml version="1.0" encoding="UTF-8" standalone="no"?>
<svg
   width="800px"
   height="800px"
   viewBox="-4 0 36 36"
   version="1.1"
   id="svg37"
   sodipodi:docname="marker-satOK-green.svg"
   inkscape:version="1.2 (dc2aedaf03, 2022-05-15)"
   xml:space="preserve"
   xmlns:inkscape="http://www.inkscape.org/namespaces/inkscape"
   xmlns:sodipodi="http://sodipodi.sourceforge.net/DTD/sodipodi-0.dtd"
   xmlns="http://www.w3.org/2000/svg"
   xmlns:svg="http://www.w3.org/2000/svg"
   xmlns:rdf="http://www.w3.org/1999/02/22-rdf-syntax-ns#"
   xmlns:cc="http://creativecommons.org/ns#"
   xmlns:dc="http://purl.org/dc/elements/1.1/"><sodipodi:namedview
     id="namedview39"
     pagecolor="#ffffff"
     bordercolor="#000000"
     borderopacity="0.25"
     inkscape:showpageshadow="2"
     inkscape:pageopacity="0.0"
     inkscape:pagecheckerboard="0"
     inkscape:deskcolor="#d1d1d1"
     showgrid="false"
     inkscape:zoom="1.07875"
     inkscape:cx="399.5365"
     inkscape:cy="325.84009"
     inkscape:window-width="1920"
     inkscape:window-height="1121"
     inkscape:window-x="-9"
     inkscape:window-y="-9"
     inkscape:window-maximized="1"
     inkscape:current-layer="g31" /><!-- Uploaded to: SVG Repo, www.svgrepo.com, Generator: SVG Repo Mixer Tools --><title
     id="title23">map-marker</title><desc
     id="desc25">Created with Sketch.</desc><defs
     id="defs27"><clipPath
       clipPathUnits="userSpaceOnUse"
       id="clipPath461"><circle
         id="circle463"
         fill="#0c0058"
         fill-rule="nonzero"
         cx="48.617481"
         cy="44.046349"
         style="fill:#ffffff;stroke-width:7.93653"
         r="55.555557" /></clipPath></defs><g
     id="Vivid.JS"
     stroke="none"
     stroke-width="1"
     fill="none"
     fill-rule="evenodd"><g
       id="Vivid-Icons"
       transform="translate(-125.000000, -643.000000)"><g
         id="Icons"
         transform="translate(37.000000, 169.000000)"><g
           id="map-marker"
           transform="translate(78.000000, 468.000000)"><g
             transform="translate(10.000000, 6.000000)"
             id="g31"><path
               d="M 14,0 C 21.455858,0 27.5,5.641 27.5,12.6 27.5,23.963 14,36 14,36 14,36 0.5,24.064 0.5,12.6 0.5,5.641 6.5441429,0 14,0 Z"
               id="Shape"
               fill="#ff6e6e"
               style="stroke-width:0.981981;fill:#808000" /><circle
               id="circle458"
               fill="#0c0058"
               fill-rule="nonzero"
               cx="14"
               cy="13.5"
               style="fill:#ffffff;stroke-width:1.60715"
               r="11.25" /><g
               id="g430"
               transform="matrix(0.2025,0,0,0.2025,4.1549598,4.5806143)"
               clip-path="url(#clipPath461)"
               style="fill:#483737"><path
                 d="m 28.958,18.46 a 4.403,4.403 0 0 0 -1.615,6.028 l 2.9,5.025 L 26.937,30.19 0,45.742 11.436,65.55 38.373,49.998 l 2.24,-2.525 2.9,5.024 a 4.403,4.403 0 0 0 6.03,1.616 l 12.162,-7.022 a 4.403,4.403 0 0 0 1.615,-6.03 L 60.42,36.037 63.726,35.36 90.663,19.808 79.228,0 52.29,15.552 50.05,18.077 47.15,13.053 A 4.403,4.403 0 0 0 41.12,11.437 Z M 6.248,47.415 30.017,33.693 36.878,45.577 13.11,59.3 Z M 53.785,19.97 77.553,6.248 84.415,18.133 60.646,31.855 Z"
                 fill="#000000"
                 id="path415"
                 style="fill:#483737" /><path
                 d="M 92.225,64.848 C 80.951,64.659 69.487,67.454 59.047,73.553 A 63.478,63.478 0 0 0 34.237,100 h 4.298 C 43.526,90.806 50.981,82.8 60.631,77.076 a 36.043,36.043 0 0 1 3.312,-1.375 c 1.493,2.387 4.686,6.609 -0.156,9.22 -3.779,2.502 -2.301,13.542 -8.24,8.42 -1.663,-3.434 0.125,-13.357 -5.299,-6.96 -0.228,2.948 2.43,6.627 -0.533,7.74 1.062,4.017 -2.838,3.532 -4.248,2.346 -0.773,1.374 1.936,2.02 1.818,3.533 h 0.145 c 1.032,-1.872 1.599,-1.266 2.207,0 h 47.789 c 0.41,0 0.791,-0.104 1.135,-0.273 -1.05,-0.144 -1.988,-0.689 -2.42,-2.428 -3.97,-2.266 -2.775,-4.71 0.904,-6.428 2.205,-4.312 -10.218,-0.677 -3.938,-5.924 -2.935,1.978 -4.144,2.838 -6.738,-0.693 3.214,4.383 -4.52,4.994 -2.908,0.328 0.748,-1.548 -4.302,-0.864 -1.223,-3.436 2.215,-1.456 12.128,5.174 9.71,-0.863 1.261,-1.405 -3.478,-2.621 -2.852,-3.199 -3.293,3.652 -8.62,-2.76 -10.205,-5.398 1.37,-0.73 2.662,-1.634 3.435,-2.356 A 59.966,59.966 0 0 1 100,69.313 v -3.84 a 64.007,64.007 0 0 0 -7.775,-0.625 z m -6.592,6.916 c -0.215,0.044 -0.347,0.093 -0.418,0.142 -0.5,0.348 2.009,0.726 0.418,-0.142 z m -14.15,0.465 c 0.671,0.004 0.926,0.264 -0.057,1.015 l -1.354,0.276 c -1.269,0.01 -1.712,-0.129 -1.687,-0.319 0.768,-0.318 1.54,-0.616 2.316,-0.9 0.286,-0.047 0.557,-0.074 0.781,-0.072 z m 16.787,0.945 c -1.176,0.072 -1.773,0.172 -1.993,0.275 -0.952,0.446 5.179,0.967 1.993,-0.275 z m 4.687,0.398 c -0.641,-0.038 -1.224,0.056 -1.508,0.223 -0.454,0.268 -0.14,0.722 1.94,1.135 1.472,1.6 1.04,3.04 2.12,0.187 -0.257,-1.056 -1.484,-1.482 -2.552,-1.545 z m -10.951,5.723 c 0.244,-0.065 1.969,1.094 0.426,0.58 -0.424,-0.401 -0.507,-0.558 -0.426,-0.58 z m -3.684,1.11 c 0.365,0.042 1.23,0.898 -0.021,0.491 -0.125,-0.253 -0.14,-0.393 -0.096,-0.455 0.024,-0.033 0.065,-0.043 0.117,-0.037 z m -6.054,0.98 c 1.127,0.045 1.45,0.785 -1.006,2.66 -0.766,0.442 -1.684,0.796 -2.584,0.578 -1.028,-0.836 -0.538,-1.68 0.424,-2.297 0.925,-0.594 2.288,-0.977 3.166,-0.941 z m -26.16,11.568 c -0.068,-0.017 -0.151,0.007 -0.253,0.084 -0.27,0.206 -0.662,0.78 -1.16,1.895 -0.802,1.086 -1.29,5.17 -0.002,1.605 1.49,-1.238 1.883,-3.46 1.414,-3.584 z m -4.538,5.395 a 1.07,1.07 0 0 0 -0.36,0.109 c -0.408,0.2 -0.88,0.7 -1.398,1.543 h 3.096 c -0.21,-0.994 -0.672,-1.723 -1.338,-1.652 z"
                 fill="#000000"
                 id="path417"
                 style="fill:#483737" /><path
                 d="m 61.123336,49.623892 a 7.45,7.45 0 0 1 -9.139,5.312 l -1.271,4.837 c 6.625,1.742 13.477,-2.242 15.242,-8.861 z"
                 fill="#000000"
                 id="path419"
                 style="fill:#483737" /><path
                 d="m 65.311465,57.796535 a 7.45,7.45 0 0 1 -9.139,5.312 l -1.271,4.837 c 6.625,1.742 13.477,-2.242 15.242,-8.861 z"
                 fill="#000000"
                 id="path419-7"
                 style="fill:#483737" /></g></g></g></g></g></g><metadata
     id="metadata361"><rdf:RDF><cc:Work
         rdf:about=""><dc:title>map-marker</dc:title></cc:Work></rdf:RDF></metadata></svg>
